<?xml version="1.0" encoding="utf-8"?>
<!-- Generator: Adobe Illustrator 23.0.0, SVG Export Plug-In . SVG Version: 6.00 Build 0)  -->
<svg version="1.1" id="레이어_1" xmlns="http://www.w3.org/2000/svg" xmlns:xlink="http://www.w3.org/1999/xlink" x="0px"
	 y="0px" viewBox="0 0 512 512" style="enable-background:new 0 0 512 512;" xml:space="preserve">
<style type="text/css">
	.st0{fill:#9B9B9B;}
	.st1{fill:none;}
	.st2{fill:#1D1B1F;}
</style>
<circle class="st0" cx="256" cy="256" r="256"/>
<g>
	<path class="st0" d="M1148.3,388.4c0,27.1-21.9,49-49,49s-49-21.9-49-49s21.9-49,49-49S1148.3,361.3,1148.3,388.4z"/>
	<path class="st0" d="M1213.9,301.7c-2.4-6.4-6.1-12.2-11-16.9c-4.7-4.9-10.5-8.6-16.9-11c-5.2-2-13-4.4-27.3-5.1
		c-15.5-0.7-20.2-0.9-59.4-0.9c-39.3,0-43.9,0.1-59.4,0.9c-14.3,0.7-22.1,3.1-27.3,5.1c-6.4,2.4-12.2,6.1-16.9,11
		c-4.9,4.7-8.6,10.5-11,16.9c-2,5.2-4.4,13-5.1,27.3c-0.7,15.5-0.9,20.1-0.9,59.4c0,39.3,0.2,43.9,0.9,59.4
		c0.7,14.3,3,22.1,5.1,27.3c2.4,6.4,6.1,12.2,11,16.9c4.7,4.9,10.5,8.6,16.9,11c5.2,2,13,4.4,27.3,5.1c15.5,0.7,20.1,0.9,59.4,0.9
		c39.3,0,43.9-0.1,59.4-0.9c14.3-0.7,22.1-3,27.3-5.1c12.8-4.9,23-15.1,27.9-27.9c2-5.2,4.4-13,5.1-27.3c0.7-15.5,0.9-20.2,0.9-59.4
		c0-39.3-0.1-43.9-0.9-59.4C1218.3,314.6,1215.9,306.8,1213.9,301.7z M1099.3,463.8c-41.7,0-75.5-33.8-75.5-75.5
		s33.8-75.5,75.5-75.5c41.7,0,75.5,33.8,75.5,75.5S1141,463.8,1099.3,463.8z M1177.8,327.5c-9.7,0-17.6-7.9-17.6-17.6
		s7.9-17.6,17.6-17.6s17.6,7.9,17.6,17.6C1195.4,319.6,1187.5,327.5,1177.8,327.5z"/>
	<path class="st0" d="M1099.3,132.4c-141.4,0-256,114.6-256,256s114.6,256,256,256s256-114.6,256-256S1240.7,132.4,1099.3,132.4z
		 M1245.4,449c-0.7,15.6-3.2,26.3-6.8,35.7c-7.6,19.7-23.2,35.4-43,43c-9.3,3.6-20,6.1-35.7,6.8c-15.7,0.7-20.7,0.9-60.6,0.9
		c-39.9,0-44.9-0.2-60.6-0.9c-15.6-0.7-26.3-3.2-35.7-6.8c-9.8-3.7-18.7-9.5-26-17c-7.5-7.3-13.3-16.2-17-26
		c-3.6-9.3-6.1-20-6.8-35.7c-0.7-15.7-0.9-20.7-0.9-60.6s0.2-44.9,0.9-60.6c0.7-15.6,3.2-26.3,6.8-35.7c3.7-9.8,9.5-18.7,17-26
		c7.3-7.5,16.2-13.3,26-17c9.4-3.6,20-6.1,35.7-6.8c15.7-0.7,20.7-0.9,60.6-0.9s44.9,0.2,60.6,0.9c15.6,0.7,26.3,3.2,35.7,6.8
		c9.8,3.7,18.7,9.5,26,17c7.5,7.3,13.3,16.2,17,26c3.6,9.4,6.1,20,6.8,35.7c0.7,15.7,0.9,20.7,0.9,60.6S1246.2,433.3,1245.4,449z"/>
</g>
<g>
	<rect x="-352.5" y="145.1" class="st1" width="14.3" height="4.3"/>
</g>
<g>
	<path class="st2" d="M194.8,370.2c-6.2-0.3-10.9-2.1-14-5.5c-3.1-3.4-4.7-7.4-4.7-12V158.4c0-4.6,1.4-8.6,4.3-12
		c2.8-3.4,7-5.1,12.4-5.1h78.9c9.8,0,18.7,1.6,26.8,4.7c8.1,3.1,15.1,7.5,20.9,13.2c5.8,5.7,10.4,12.4,13.6,20.1
		c3.3,7.7,4.9,16.2,4.9,25.4c0,7.1-1.4,14.5-4.1,22.4c-2.7,7.9-7.6,14.9-14.6,21.1c-2.7,2.2-4.5,3.9-5.3,5.1
		c-0.8,1.2,0.7,2.8,4.5,4.7c10.3,4.9,17.5,11.5,21.5,19.7c4.1,8.3,6.1,17.7,6.1,28.3c0,10.3-1.8,19.4-5.5,27.4
		c-3.7,8-8.5,14.7-14.6,20.1c-6.1,5.4-13.2,9.6-21.3,12.4s-16.8,4.3-26,4.3H194.8z M207.4,232.4c0,3,0.9,5,2.6,6.1
		c1.8,1.1,4.1,1.6,7.1,1.6h50c12.5,0,21.9-3.3,28.3-10c6.4-6.6,9.6-15.1,9.6-25.4c0-11.6-3.3-20.3-10-26c-6.6-5.7-15.8-8.5-27.4-8.5
		h-50.4c-3,0-5.4,0.5-7.1,1.6c-1.8,1.1-2.6,3.5-2.6,7.3V232.4z M207.4,332.4c0,1.6,0.7,3.5,2,5.5c1.4,2,4.1,3,8.1,3h55.3
		c13,0,23-3,29.9-9.1c6.9-6.1,10.4-14.7,10.4-25.8c0-23-13.8-34.6-41.5-34.6h-55.3c-2.2,0-4.2,0.7-6.1,2.2c-1.9,1.5-2.8,4.1-2.8,7.9
		V332.4z"/>
</g>
</svg>
