<?xml version="1.0"?>
<svg xmlns="http://www.w3.org/2000/svg" xmlns:xlink="http://www.w3.org/1999/xlink" version="1.1" id="Capa_1" x="0px" y="0px" viewBox="0 0 511.999 511.999" style="enable-background:new 0 0 511.999 511.999;" xml:space="preserve" width="512px" height="512px"><g><g>
	<g>
		<path d="M390.029,100.463c7.54-42.471-30.908-78.81-72.876-68.895c-29.94-42.086-92.397-42.096-122.344,0    c-41.975-9.917-80.415,26.427-72.876,68.895c-9.639,30.003-13.538,143.173,24.331,242.523    c9.629,25.336,13.697,49.012,7.867,79.013h203.701c-5.77-29.689-1.889-53.4,7.866-78.999    C403.695,243.295,399.673,130.481,390.029,100.463z M315.981,89.956c-8.291,0-15,6.709-15,15v60c0,19.828-30,19.828-30,0v-60    c0-8.291-6.709-15-15-15h-105c0.001-16.538,13.463-30,30.001-30c10.587,0,16.797,7.079,25.371,4.102    c3.867-1.333,7.017-4.189,8.73-7.91c16.047-34.854,65.774-34.803,81.797,0c1.714,3.721,4.863,6.577,8.73,7.91    c8.557,2.982,14.758-4.102,25.371-4.102c16.538,0,30,13.462,30,30H315.981z" data-original="#000000" class="active-path" data-old_color="#000000" fill="#9B9B9B"/>
	</g>
</g><g>
	<g>
		<path d="M366.352,451.999H145.611c-4.462,12.358-3.638,25.895,3.144,37.588c8.145,14.033,22.705,22.412,38.921,22.412h136.611    c16.216,0,30.776-8.379,38.921-22.412C369.99,477.894,370.814,464.357,366.352,451.999z" data-original="#000000" class="active-path" data-old_color="#000000" fill="#9B9B9B"/>
	</g>
</g></g> </svg>
