<?xml version="1.0" encoding="utf-8"?>
<!-- Generator: Adobe Illustrator 23.0.0, SVG Export Plug-In . SVG Version: 6.00 Build 0)  -->
<svg version="1.1" id="Capa_1" xmlns="http://www.w3.org/2000/svg" xmlns:xlink="http://www.w3.org/1999/xlink" x="0px" y="0px"
	 viewBox="0 0 359.2 418.9" style="enable-background:new 0 0 359.2 418.9;" xml:space="preserve">
<style type="text/css">
	.st0{fill:#ED5729;}
	.st1{fill:#FE9900;}
	.st2{fill:#FDB440;}
	.st3{clip-path:url(#SVGID_2_);fill:#FF6D3A;}
	.st4{clip-path:url(#SVGID_4_);fill:#E1EFFB;}
	.st5{clip-path:url(#SVGID_6_);fill:#61AFF6;}
	.st6{clip-path:url(#SVGID_8_);fill:#61AFF6;}
	.st7{clip-path:url(#SVGID_10_);fill:#E1EFFB;}
	.st8{clip-path:url(#SVGID_12_);fill:#FF6D3A;}
	.st9{clip-path:url(#SVGID_14_);fill:#49A0E8;}
	.st10{clip-path:url(#SVGID_16_);fill:#C3D8E5;}
	.st11{clip-path:url(#SVGID_18_);fill:#F9AD34;}
	.st12{clip-path:url(#SVGID_20_);fill:#DD8D19;}
	.st13{clip-path:url(#SVGID_22_);fill:#FFF1C7;}
	.st14{clip-path:url(#SVGID_24_);fill:#FF6D3A;}
	.st15{clip-path:url(#SVGID_26_);fill:#E1EFFB;}
	.st16{clip-path:url(#SVGID_28_);fill:#61AFF6;}
	.st17{clip-path:url(#SVGID_30_);fill:#61AFF6;}
	.st18{clip-path:url(#SVGID_32_);fill:#E1EFFB;}
	.st19{clip-path:url(#SVGID_34_);fill:#FF6D3A;}
	.st20{clip-path:url(#SVGID_36_);fill:#49A0E8;}
	.st21{clip-path:url(#SVGID_38_);fill:#C3D8E5;}
	.st22{clip-path:url(#SVGID_40_);fill:#E6E2E6;}
	.st23{clip-path:url(#SVGID_42_);fill:#AB9FAA;}
	.st24{clip-path:url(#SVGID_44_);fill:#FFF1C7;}
	.st25{clip-path:url(#SVGID_46_);fill:#FF6D3A;}
	.st26{clip-path:url(#SVGID_48_);fill:#E1EFFB;}
	.st27{clip-path:url(#SVGID_50_);fill:#61AFF6;}
	.st28{clip-path:url(#SVGID_52_);fill:#61AFF6;}
	.st29{clip-path:url(#SVGID_54_);fill:#E1EFFB;}
	.st30{clip-path:url(#SVGID_56_);fill:#FF6D3A;}
	.st31{clip-path:url(#SVGID_58_);fill:#49A0E8;}
	.st32{clip-path:url(#SVGID_60_);fill:#C3D8E5;}
	.st33{clip-path:url(#SVGID_62_);fill:#F9AD34;}
	.st34{clip-path:url(#SVGID_64_);fill:#DD8D19;}
	.st35{fill:#FFF1C7;}
</style>
<polygon class="st0" points="295.7,933.9 270.4,898.5 243,936.8 268.3,972.2 "/>
<path class="st1" d="M-1178.3,603.4c-7.9,0-15.7,0.8-23.2,2.3c53.4,10.8,93.7,58,93.7,114.6s-40.2,103.8-93.7,114.6
	c7.5,1.5,15.2,2.3,23.2,2.3c64.5,0,116.9-52.3,116.9-116.9S-1113.8,603.4-1178.3,603.4z"/>
<image style="overflow:visible;enable-background:new    ;" width="147" height="159" xlink:href="이슈고래/01_디자인/@/BD864D.jpg"  transform="matrix(3.5901 0 0 3.5901 -1959.825 -154.3147)">
</image>
<circle class="st2" cx="-1610.3" cy="784.6" r="115.2"/>
<g>
	<g>
		<defs>
			<rect id="SVGID_1_" x="-51.2" y="720.3" width="588.3" height="409.1"/>
		</defs>
		<clipPath id="SVGID_2_">
			<use xlink:href="#SVGID_1_"  style="overflow:visible;"/>
		</clipPath>
		<path class="st3" d="M330.8,619.7L158.1,861.2h146.7L473,626c2.5-3.6,0-8.5-4.4-8.5H335.2C333.5,617.5,331.9,618.3,330.8,619.7z"
			/>
	</g>
	<g>
		<defs>
			<rect id="SVGID_3_" x="-51.2" y="720.3" width="588.3" height="409.1"/>
		</defs>
		<clipPath id="SVGID_4_">
			<use xlink:href="#SVGID_3_"  style="overflow:visible;"/>
		</clipPath>
		<polygon class="st4" points="433.5,617.5 259.1,861.2 208.8,861.2 383.1,617.5 		"/>
	</g>
	<g>
		<defs>
			<rect id="SVGID_5_" x="-51.2" y="720.3" width="588.3" height="409.1"/>
		</defs>
		<clipPath id="SVGID_6_">
			<use xlink:href="#SVGID_5_"  style="overflow:visible;"/>
		</clipPath>
		<path class="st5" d="M468.7,617.5h-35.2L259.1,861.2h45.6L473,626C475.6,622.4,473.1,617.5,468.7,617.5z"/>
	</g>
	<g>
		<defs>
			<rect id="SVGID_7_" x="-51.2" y="720.3" width="588.3" height="409.1"/>
		</defs>
		<clipPath id="SVGID_8_">
			<use xlink:href="#SVGID_7_"  style="overflow:visible;"/>
		</clipPath>
		<path class="st6" d="M-10,626l168.3,235.2H305L132.2,619.7c-1-1.4-2.6-2.2-4.4-2.2H-5.7C-10.1,617.5-12.6,622.4-10,626z"/>
	</g>
	<g>
		<defs>
			<rect id="SVGID_9_" x="-51.2" y="720.3" width="588.3" height="409.1"/>
		</defs>
		<clipPath id="SVGID_10_">
			<use xlink:href="#SVGID_9_"  style="overflow:visible;"/>
		</clipPath>
		<polygon class="st7" points="32.2,617.5 206.6,861.2 256.9,861.2 82.6,617.5 		"/>
	</g>
	<g>
		<defs>
			<rect id="SVGID_11_" x="-51.2" y="720.3" width="588.3" height="409.1"/>
		</defs>
		<clipPath id="SVGID_12_">
			<use xlink:href="#SVGID_11_"  style="overflow:visible;"/>
		</clipPath>
		<path class="st8" d="M-5.7,617.5c-4.4,0-6.9,4.9-4.4,8.5l168.3,235.2h48.3L32.2,617.5H-5.7z"/>
	</g>
	<g>
		<defs>
			<rect id="SVGID_13_" x="-51.2" y="720.3" width="588.3" height="409.1"/>
		</defs>
		<clipPath id="SVGID_14_">
			<use xlink:href="#SVGID_13_"  style="overflow:visible;"/>
		</clipPath>
		<polygon class="st9" points="309.4,790.9 282,829.2 304.8,861.1 323.7,834.8 332.2,822.8 		"/>
	</g>
	<g>
		<defs>
			<rect id="SVGID_15_" x="-51.2" y="720.3" width="588.3" height="409.1"/>
		</defs>
		<clipPath id="SVGID_16_">
			<use xlink:href="#SVGID_15_"  style="overflow:visible;"/>
		</clipPath>
		<polygon class="st10" points="282,829.2 309.4,790.9 284.2,755.7 256.8,794 		"/>
	</g>
	<g>
		<defs>
			<rect id="SVGID_17_" x="-51.2" y="720.3" width="588.3" height="409.1"/>
		</defs>
		<clipPath id="SVGID_18_">
			<use xlink:href="#SVGID_17_"  style="overflow:visible;"/>
		</clipPath>
		<path class="st11" d="M246.4,827.4L246.4,827.4c7,6.9,17.4,9.2,26.6,5.7l0,0c12.9-4.9,27.4,1.5,32.4,14.4l0,0
			c3.6,9.2,12.2,15.4,22,16l0,0c13.8,0.8,24.4,12.5,23.7,26.3l0,0c-0.5,9.8,4.8,19.1,13.6,23.6l0,0c12.3,6.3,17.2,21.4,10.9,33.7
			l0,0c-4.4,8.8-3.3,19.4,2.8,27.1l0,0c8.6,10.8,7,26.5-3.7,35.2l0,0c-7.6,6.2-10.9,16.4-8.4,25.9l0,0c3.5,13.4-4.4,27-17.7,30.7
			l0,0c-9.5,2.6-16.6,10.5-18.2,20.2l0,0c-2.2,13.6-15,22.9-28.7,20.8l0,0c-9.7-1.5-19.5,2.8-24.9,11.1l0,0
			c-7.6,11.6-23,14.8-34.6,7.4l0,0c-8.3-5.3-18.9-5.3-27.2,0l0,0c-11.6,7.5-27.1,4.2-34.6-7.4l0,0c-5.4-8.2-15.1-12.6-24.9-11.1l0,0
			c-13.6,2.1-26.4-7.2-28.7-20.8l0,0c-1.6-9.7-8.7-17.6-18.2-20.2l0,0c-13.3-3.6-21.2-17.3-17.7-30.7l0,0c2.5-9.5-0.8-19.7-8.4-25.9
			l0,0c-10.7-8.7-12.4-24.5-3.7-35.2l0,0c6.2-7.7,7.3-18.3,2.8-27.1l0,0c-6.2-12.3-1.3-27.4,10.9-33.7l0,0
			c8.8-4.5,14.1-13.7,13.6-23.6l0,0c-0.7-13.8,9.9-25.5,23.7-26.3l0,0c9.8-0.6,18.5-6.8,22-16l0,0c5-12.9,19.4-19.3,32.4-14.4l0,0
			c9.2,3.5,19.6,1.3,26.6-5.7l0,0C220.8,817.6,236.6,817.6,246.4,827.4z"/>
	</g>
	<g>
		<defs>
			<rect id="SVGID_19_" x="-51.2" y="720.3" width="588.3" height="409.1"/>
		</defs>
		<clipPath id="SVGID_20_">
			<use xlink:href="#SVGID_19_"  style="overflow:visible;"/>
		</clipPath>
		<circle class="st12" cx="228.7" cy="974.7" r="116.9"/>
	</g>
	<g>
		<defs>
			<rect id="SVGID_21_" x="-51.2" y="720.3" width="588.3" height="409.1"/>
		</defs>
		<clipPath id="SVGID_22_">
			<use xlink:href="#SVGID_21_"  style="overflow:visible;"/>
		</clipPath>
		<path class="st13" d="M227.8,942.4l-5,6.3c-1,1-2.3,1.4-3.2,1.4c-3,0-5.2-3.2-5.2-6.2c0-2.2,1.1-4.6,3-5.9l14.9-14.4
			c1-1,2.2-1.6,3.9-1.6c3.2,0,6.7,1.9,6.7,5v95c0,3.3-3.9,5-7.6,5c-3.9,0-7.6-1.7-7.6-5L227.8,942.4L227.8,942.4z"/>
	</g>
</g>
<g>
	<g>
		<defs>
			<rect id="SVGID_23_" x="-1291.4" y="4.9" width="588.3" height="409.1"/>
		</defs>
		<clipPath id="SVGID_24_">
			<use xlink:href="#SVGID_23_"  style="overflow:visible;"/>
		</clipPath>
		<path class="st14" d="M-909.4-95.7l-172.7,241.5h146.7l168.2-235.2c2.5-3.6,0-8.5-4.4-8.5h-133.5
			C-906.8-97.9-908.4-97.1-909.4-95.7z"/>
	</g>
	<g>
		<defs>
			<rect id="SVGID_25_" x="-1291.4" y="4.9" width="588.3" height="409.1"/>
		</defs>
		<clipPath id="SVGID_26_">
			<use xlink:href="#SVGID_25_"  style="overflow:visible;"/>
		</clipPath>
		<polygon class="st15" points="-806.7,-97.9 -981.1,145.8 -1031.5,145.8 -857.1,-97.9 		"/>
	</g>
	<g>
		<defs>
			<rect id="SVGID_27_" x="-1291.4" y="4.9" width="588.3" height="409.1"/>
		</defs>
		<clipPath id="SVGID_28_">
			<use xlink:href="#SVGID_27_"  style="overflow:visible;"/>
		</clipPath>
		<path class="st16" d="M-771.6-97.9h-35.2l-174.3,243.7h45.6l168.3-235.2C-764.6-93-767.2-97.9-771.6-97.9z"/>
	</g>
	<g>
		<defs>
			<rect id="SVGID_29_" x="-1291.4" y="4.9" width="588.3" height="409.1"/>
		</defs>
		<clipPath id="SVGID_30_">
			<use xlink:href="#SVGID_29_"  style="overflow:visible;"/>
		</clipPath>
		<path class="st17" d="M-1250.3-89.4l168.3,235.2h146.7l-172.8-241.5c-1-1.4-2.6-2.2-4.4-2.2H-1246
			C-1250.3-97.9-1252.8-93-1250.3-89.4z"/>
	</g>
	<g>
		<defs>
			<rect id="SVGID_31_" x="-1291.4" y="4.9" width="588.3" height="409.1"/>
		</defs>
		<clipPath id="SVGID_32_">
			<use xlink:href="#SVGID_31_"  style="overflow:visible;"/>
		</clipPath>
		<polygon class="st18" points="-1208,-97.9 -1033.7,145.8 -983.3,145.8 -1157.6,-97.9 		"/>
	</g>
	<g>
		<defs>
			<rect id="SVGID_33_" x="-1291.4" y="4.9" width="588.3" height="409.1"/>
		</defs>
		<clipPath id="SVGID_34_">
			<use xlink:href="#SVGID_33_"  style="overflow:visible;"/>
		</clipPath>
		<path class="st19" d="M-1245.9-97.9c-4.4,0-6.9,4.9-4.4,8.5l168.3,235.2h48.3L-1208-97.9H-1245.9z"/>
	</g>
	<g>
		<defs>
			<rect id="SVGID_35_" x="-1291.4" y="4.9" width="588.3" height="409.1"/>
		</defs>
		<clipPath id="SVGID_36_">
			<use xlink:href="#SVGID_35_"  style="overflow:visible;"/>
		</clipPath>
		<polygon class="st20" points="-930.8,75.5 -958.2,113.8 -935.4,145.7 -916.6,119.4 -908,107.4 		"/>
	</g>
	<g>
		<defs>
			<rect id="SVGID_37_" x="-1291.4" y="4.9" width="588.3" height="409.1"/>
		</defs>
		<clipPath id="SVGID_38_">
			<use xlink:href="#SVGID_37_"  style="overflow:visible;"/>
		</clipPath>
		<polygon class="st21" points="-958.2,113.8 -930.8,75.5 -956,40.3 -983.4,78.6 		"/>
	</g>
	<g>
		<defs>
			<rect id="SVGID_39_" x="-1291.4" y="4.9" width="588.3" height="409.1"/>
		</defs>
		<clipPath id="SVGID_40_">
			<use xlink:href="#SVGID_39_"  style="overflow:visible;"/>
		</clipPath>
		<path class="st22" d="M-993.8,112L-993.8,112c7,6.9,17.4,9.2,26.6,5.7l0,0c12.9-4.9,27.4,1.5,32.4,14.4l0,0
			c3.6,9.2,12.2,15.4,22,16l0,0c13.8,0.8,24.4,12.5,23.7,26.3l0,0c-0.5,9.8,4.8,19.1,13.6,23.6l0,0c12.3,6.3,17.2,21.4,10.9,33.7
			l0,0c-4.4,8.8-3.3,19.4,2.8,27.1l0,0c8.6,10.8,7,26.5-3.7,35.2l0,0c-7.6,6.2-10.9,16.4-8.4,25.9l0,0c3.5,13.4-4.4,27-17.7,30.7
			l0,0c-9.5,2.6-16.6,10.5-18.2,20.2l0,0c-2.2,13.6-15,22.9-28.7,20.8l0,0c-9.7-1.5-19.5,2.8-24.9,11.1l0,0
			c-7.6,11.6-23,14.8-34.6,7.4l0,0c-8.3-5.3-18.9-5.3-27.2,0l0,0c-11.6,7.5-27.1,4.2-34.6-7.4l0,0c-5.4-8.2-15.1-12.6-24.9-11.1l0,0
			c-13.6,2.1-26.4-7.2-28.7-20.8l0,0c-1.6-9.7-8.7-17.6-18.2-20.2l0,0c-13.3-3.6-21.2-17.3-17.7-30.7l0,0c2.5-9.5-0.8-19.7-8.4-25.9
			l0,0c-10.7-8.7-12.4-24.5-3.7-35.2l0,0c6.2-7.7,7.3-18.3,2.8-27.1l0,0c-6.2-12.3-1.3-27.4,10.9-33.7l0,0
			c8.8-4.5,14.1-13.7,13.6-23.6l0,0c-0.7-13.8,9.9-25.5,23.7-26.3l0,0c9.8-0.6,18.5-6.8,22-16l0,0c5-12.9,19.4-19.3,32.4-14.4l0,0
			c9.2,3.5,19.6,1.3,26.6-5.7l0,0C-1019.5,102.2-1003.6,102.2-993.8,112z"/>
	</g>
	<g>
		<defs>
			<rect id="SVGID_41_" x="-1291.4" y="4.9" width="588.3" height="409.1"/>
		</defs>
		<clipPath id="SVGID_42_">
			<use xlink:href="#SVGID_41_"  style="overflow:visible;"/>
		</clipPath>
		<circle class="st23" cx="-1011.6" cy="259.3" r="116.9"/>
	</g>
	<g>
		<defs>
			<rect id="SVGID_43_" x="-1291.4" y="4.9" width="588.3" height="409.1"/>
		</defs>
		<clipPath id="SVGID_44_">
			<use xlink:href="#SVGID_43_"  style="overflow:visible;"/>
		</clipPath>
		<path class="st24" d="M-1012.5,227l-5,6.3c-1,1-2.3,1.4-3.2,1.4c-3,0-5.2-3.2-5.2-6.2c0-2.2,1.1-4.6,3-5.9l14.9-14.4
			c1-1,2.2-1.6,3.9-1.6c3.2,0,6.7,1.9,6.7,5v95c0,3.3-3.9,5-7.6,5c-3.9,0-7.6-1.7-7.6-5L-1012.5,227L-1012.5,227z"/>
	</g>
</g>
<g>
	<defs>
		<rect id="SVGID_45_" x="-103.9" y="4.9" width="588.3" height="409.1"/>
	</defs>
	<clipPath id="SVGID_46_">
		<use xlink:href="#SVGID_45_"  style="overflow:visible;"/>
	</clipPath>
	<path class="st25" d="M278.1-95.6L105.4,145.8h146.7L420.3-89.4c2.5-3.6,0-8.5-4.4-8.5H282.4C280.7-97.9,279.1-97.1,278.1-95.6z"/>
</g>
<g>
	<defs>
		<rect id="SVGID_47_" x="-103.9" y="4.9" width="588.3" height="409.1"/>
	</defs>
	<clipPath id="SVGID_48_">
		<use xlink:href="#SVGID_47_"  style="overflow:visible;"/>
	</clipPath>
	<polygon class="st26" points="380.7,-97.9 206.4,145.8 156,145.8 330.4,-97.9 	"/>
</g>
<g>
	<defs>
		<rect id="SVGID_49_" x="-103.9" y="4.9" width="588.3" height="409.1"/>
	</defs>
	<clipPath id="SVGID_50_">
		<use xlink:href="#SVGID_49_"  style="overflow:visible;"/>
	</clipPath>
	<path class="st27" d="M415.9-97.9h-35.2L206.4,145.8H252L420.3-89.4C422.8-92.9,420.3-97.9,415.9-97.9z"/>
</g>
<g>
	<defs>
		<rect id="SVGID_51_" x="-103.9" y="4.9" width="588.3" height="409.1"/>
	</defs>
	<clipPath id="SVGID_52_">
		<use xlink:href="#SVGID_51_"  style="overflow:visible;"/>
	</clipPath>
	<path class="st28" d="M-62.8-89.4l168.3,235.2h146.7L79.4-95.6c-1-1.4-2.6-2.2-4.4-2.2H-58.4C-62.8-97.9-65.4-92.9-62.8-89.4z"/>
</g>
<g>
	<defs>
		<rect id="SVGID_53_" x="-103.9" y="4.9" width="588.3" height="409.1"/>
	</defs>
	<clipPath id="SVGID_54_">
		<use xlink:href="#SVGID_53_"  style="overflow:visible;"/>
	</clipPath>
	<polygon class="st29" points="-20.6,-97.9 153.8,145.8 204.2,145.8 29.8,-97.9 	"/>
</g>
<g>
	<defs>
		<rect id="SVGID_55_" x="-103.9" y="4.9" width="588.3" height="409.1"/>
	</defs>
	<clipPath id="SVGID_56_">
		<use xlink:href="#SVGID_55_"  style="overflow:visible;"/>
	</clipPath>
	<path class="st30" d="M-58.4-97.9c-4.4,0-6.9,4.9-4.4,8.5l168.3,235.2h48.3L-20.5-97.9H-58.4z"/>
</g>
<g>
	<defs>
		<rect id="SVGID_57_" x="-103.9" y="4.9" width="588.3" height="409.1"/>
	</defs>
	<clipPath id="SVGID_58_">
		<use xlink:href="#SVGID_57_"  style="overflow:visible;"/>
	</clipPath>
	<polygon class="st31" points="256.6,75.5 229.3,113.8 252.1,145.7 270.9,119.4 279.5,107.4 	"/>
</g>
<g>
	<defs>
		<rect id="SVGID_59_" x="-103.9" y="4.9" width="588.3" height="409.1"/>
	</defs>
	<clipPath id="SVGID_60_">
		<use xlink:href="#SVGID_59_"  style="overflow:visible;"/>
	</clipPath>
	<polygon class="st32" points="229.3,113.8 256.6,75.5 231.5,40.3 204.1,78.6 	"/>
</g>
<g>
	<defs>
		<rect id="SVGID_61_" x="-103.9" y="4.9" width="588.3" height="409.1"/>
	</defs>
	<clipPath id="SVGID_62_">
		<use xlink:href="#SVGID_61_"  style="overflow:visible;"/>
	</clipPath>
	<path class="st33" d="M193.6,112L193.6,112c7,6.9,17.4,9.2,26.6,5.7l0,0c12.9-4.9,27.4,1.5,32.4,14.4l0,0c3.6,9.2,12.2,15.4,22,16
		l0,0c13.8,0.8,24.4,12.5,23.7,26.3l0,0c-0.5,9.8,4.8,19.1,13.6,23.6l0,0c12.3,6.3,17.2,21.4,10.9,33.7l0,0
		c-4.4,8.8-3.3,19.4,2.8,27.1l0,0c8.6,10.8,7,26.5-3.7,35.2l0,0c-7.6,6.2-10.9,16.4-8.4,25.9l0,0c3.5,13.4-4.4,27-17.7,30.7l0,0
		c-9.5,2.6-16.6,10.5-18.2,20.2l0,0c-2.2,13.6-15,22.9-28.7,20.8l0,0c-9.7-1.5-19.5,2.8-24.9,11.1l0,0c-7.6,11.6-23,14.8-34.6,7.4
		l0,0c-8.3-5.3-18.9-5.3-27.2,0l0,0c-11.6,7.5-27.1,4.2-34.6-7.4l0,0c-5.4-8.2-15.1-12.6-24.9-11.1l0,0
		c-13.6,2.1-26.4-7.2-28.7-20.8l0,0c-1.6-9.7-8.7-17.6-18.2-20.2l0,0c-13.3-3.6-21.2-17.3-17.7-30.7l0,0c2.5-9.5-0.8-19.7-8.4-25.9
		l0,0c-10.7-8.7-12.4-24.5-3.7-35.2l0,0c6.2-7.7,7.3-18.3,2.8-27.1l0,0c-6.2-12.3-1.3-27.4,10.9-33.7l0,0
		c8.8-4.5,14.1-13.7,13.6-23.6l0,0c-0.7-13.8,9.9-25.5,23.7-26.3l0,0c9.8-0.6,18.5-6.8,22-16l0,0c5-12.9,19.4-19.3,32.4-14.4l0,0
		c9.2,3.5,19.6,1.3,26.6-5.7l0,0C168,102.3,183.8,102.3,193.6,112z"/>
</g>
<g>
	<defs>
		<rect id="SVGID_63_" x="-103.9" y="4.9" width="588.3" height="409.1"/>
	</defs>
	<clipPath id="SVGID_64_">
		<use xlink:href="#SVGID_63_"  style="overflow:visible;"/>
	</clipPath>
	<circle class="st34" cx="175.9" cy="259.4" r="116.9"/>
</g>
<g>
	<defs>
		<rect id="SVGID_65_" x="-103.9" y="4.9" width="588.3" height="409.1"/>
	</defs>
	<clipPath id="SVGID_66_">
		<use xlink:href="#SVGID_65_"  style="overflow:visible;"/>
	</clipPath>
</g>
<rect x="-1086.2" y="-286.5" class="st35" width="588.3" height="102.8"/>
<rect x="-1649.8" y="-225.3" class="st35" width="588.3" height="102.8"/>
<image style="overflow:visible;enable-background:new    ;" width="127" height="153" xlink:href="이슈고래/01_디자인/@/BD864F.jpg"  transform="matrix(8.9841 0 0 8.9841 -1414.3605 -1661.5614)">
</image>
<image style="overflow:visible;enable-background:new    ;" width="150" height="156" xlink:href="이슈고래/01_디자인/@/BD864A.jpg"  transform="matrix(3.9813 0 0 3.9813 488.4541 -985.1102)">
</image>
<path class="st35" d="M196.6,283.9v-2.7c0-11.5-7-15.6-17.5-15.6c-3.6,0-4.9-3-4.9-6c0-3.2,1.3-6.2,4.9-6.2
	c8.8,0,14.9-2.7,14.9-15.8c0-10.5-5-14.8-14.4-14.8c-11.6,0-14.9,5.9-14.9,11.8c0,3.7-1.7,6.2-7.2,6.2c-6.7,0-7.9-1.6-7.9-7
	c0-9.3,6.5-24.3,30.1-24.3c16.8,0,28.9,6.6,28.9,25.5c0,11.9-4.6,20.7-11.5,24c8.5,3.3,14.6,10,14.6,22.2v2.7
	c0,22.8-14.6,31.3-32.7,31.3c-22.4,0-31.7-13.9-31.7-25.3c0-5,1.9-6.5,7-6.5c6.3,0,7.9,1.9,7.9,5.7c0,6.3,5.3,12.5,16.9,12.5
	C191,301.7,196.6,296.4,196.6,283.9z"/>
</svg>
