<?xml version="1.0"?>
<svg xmlns="http://www.w3.org/2000/svg" height="512px" viewBox="0 -24 512 512" width="512px"><g><path d="m62.71875 42.824219-41.324219 74.378906c-12 21.59375-21.394531 57.859375-21.394531 82.5625v48.199219c0 30.421875 24.746094 55.167968 55.164062 55.167968h137.636719v105.5c0 30.417969 24.75 55.164063 55.167969 55.164063h32.132812c30.417969 0 55.164063-24.746094 55.164063-55.164063v-67.039062l34.269531-42.832031v-298.761719h-234.035156c-27.472656 0-59.441406 18.8125-72.78125 42.824219zm0 0" data-original="#000000" class="active-path" data-old_color="#000000" fill="#FFFFFF"/><path d="m456.832031 0h-57.300781v271h57.300781c30.421875 0 55.167969-24.746094 55.167969-55.167969v-160.667969c0-30.417968-24.746094-55.164062-55.167969-55.164062zm0 0" data-original="#000000" class="active-path" data-old_color="#000000" fill="#FFFFFF"/></g> </svg>
