<?xml version="1.0"?>
<svg xmlns="http://www.w3.org/2000/svg" height="512px" viewBox="-31 1 511 511.99943" width="512px"><g><path d="m.5 497c0 8.285156 6.714844 15 15 15h419.964844c8.28125 0 14.996094-6.714844 14.996094-15 0-8.28125-6.714844-15-14.996094-15h-76.589844c19.480469-19.070312 31.59375-45.640625 31.59375-74.992188 0-8.28125-6.71875-15-15-15h-59.996094c-29.351562 0-55.921875 12.113282-74.992187 31.59375v-48.210937c27.5 12.878906 63.691406-.730469 72.445312-33.988281 38.765625 10.453125 74.390625-25.113282 63.933594-63.921875 38.917969-10.238281 51.949219-59.050781 23.417969-87.453125 28.4375-28.316406 15.667968-77.15625-23.421875-87.445313 10.457031-38.789062-25.140625-74.402343-63.949219-63.925781-10.277344-38.75-59.078125-51.707031-87.417969-23.359375-28.257812-28.277344-77.128906-15.546875-87.441406 23.351563-38.746094-10.457032-74.417969 25.082031-63.945313 63.925781-39.109374 10.285156-51.855468 59.148437-23.425781 87.453125-28.53125 28.40625-15.523437 77.203125 23.410157 87.453125-10.46875 38.8125 25.148437 74.414062 63.949218 63.941406 8.746094 33.222656 44.871094 46.902344 72.449219 33.988281v48.191406c-19.070313-19.480468-45.640625-31.59375-74.992187-31.59375h-59.996094c-8.285156 0-15 6.71875-15 15 0 29.351563 12.113281 55.921876 31.59375 74.992188h-76.589844c-8.285156 0-15 6.71875-15 15zm314.972656-75.003906h43.488282c-6.96875 34.1875-37.269532 60.003906-73.484376 60.003906h-43.488281c6.96875-34.1875 37.269531-60.003906 73.484375-60.003906zm-164.984375-231.96875c0-41.351563 33.640625-74.996094 74.992188-74.996094 41.351562 0 74.992187 33.644531 74.992187 74.996094 0 41.351562-33.640625 74.992187-74.992187 74.992187-41.351563 0-74.992188-33.640625-74.992188-74.992187zm118.28125 159.238281-.832031.222656c-13.816406 3.675781-27.457031-6.773437-27.457031-21.046875v-34.5c8.34375-1.199218 16.375-3.378906 23.96875-6.425781l17.226562 29.839844s0 0 .003907.003906l.019531.035156c7.128906 12.351563.652343 28.179688-12.929688 31.871094zm73.644531-42.894531-.597656.597656c-10.078125 10.027344-27.050781 7.707031-34.164062-4.613281l-17.246094-29.875c6.507812-5.132813 12.394531-11.023438 17.527344-17.53125l29.898437 17.261719c12.3125 7.128906 14.605469 24.085937 4.582031 34.160156zm21.484376-101.347656c14.25 0 24.726562 13.636718 21.054687 27.4375l-.230469.855468c-3.695312 13.601563-19.539062 20.046875-31.875 12.925782l-.03125-.015626c-.003906-.003906-.003906-.003906-.007812-.007812l-29.835938-17.226562c3.046875-7.59375 5.226563-15.625 6.425782-23.96875zm20.820312-58.285157.222656.828125c3.679688 13.820313-6.769531 27.460938-21.046875 27.460938h-34.5c-1.199219-8.34375-3.378906-16.375-6.425781-23.96875l29.839844-17.226563c.003906 0 .007812-.003906.011718-.007812l.027344-.015625c12.378906-7.144532 28.1875-.628906 31.871094 12.929687zm-42.894531-73.648437.601562.601562c10 10.054688 7.730469 27.027344-4.601562 34.15625l-29.886719 17.253906c-5.136719-6.507812-11.023438-12.394531-17.53125-17.527343l17.246094-29.875c7.117187-12.324219 24.085937-14.644531 34.171875-4.609375zm-73.886719-42.335938.832031.222656c13.628907 3.703126 20.03125 19.375 12.925781 31.683594l-17.246093 29.875c-7.597657-3.046875-15.625-5.226562-23.96875-6.425781v-34.496094c0-14.203125 13.578125-24.554687 27.457031-20.859375zm-85.730469.203125.820313-.21875c13.867187-3.683593 27.453125 6.644531 27.453125 20.863281v34.507813c-8.339844 1.199219-16.371094 3.382813-23.964844 6.425781l-17.257813-29.882812c-7.097656-12.296875-.722656-27.988282 12.949219-31.695313zm-73.664062 42.714844.601562-.597656c10.054688-10 27.035157-7.726563 34.164063 4.617187l17.25 29.882813c-6.507813 5.132812-12.394532 11.019531-17.53125 17.527343l-29.886719-17.253906c-12.320313-7.117187-14.632813-24.089844-4.597656-34.175781zm-42.535157 73.886719.21875-.816406c3.6875-13.609376 19.535157-20.0625 31.878907-12.9375l.039062.023437s.003907 0 .003907.003906l29.84375 17.230469c-3.046876 7.59375-5.226563 15.621094-6.425782 23.964844h-34.507812c-14.257813 0-24.726563-13.617188-21.050782-27.46875zm.21875 85.75-.222656-.828125c-3.675781-13.839844 6.804688-27.457031 21.054688-27.457031h34.507812c1.199219 8.34375 3.378906 16.375 6.425782 23.96875l-29.859376 17.242187c-.003906 0-.007812.003906-.011718.003906l-.015625.007813c-12.355469 7.136718-28.195313.65625-31.878907-12.9375zm42.890626 73.679687-.605469-.605469c-10.003907-10.054687-7.730469-27.03125 4.609375-34.167968l29.90625-17.265625c5.132812 6.507812 11.019531 12.394531 17.527344 17.53125l-17.257813 29.894531c-7.121094 12.335938-24.097656 14.640625-34.179687 4.613281zm73.917968 42.515625-.839844-.222656c-13.605468-3.691406-20.0625-19.535156-12.9375-31.878906l17.257813-29.886719c7.59375 3.046875 15.621094 5.226563 23.964844 6.425781v34.507813c0 14.234375-13.605469 24.730469-27.445313 21.054687zm-91.035156 72.503906h43.488281c36.214844 0 66.515625 25.804688 73.488281 59.992188h-43.492187c-36.214844 0-66.515625-25.804688-73.484375-59.992188zm0 0" data-original="#000000" class="active-path" data-old_color="#000000" fill="#6332F6"/></g> </svg>
