<?xml version="1.0"?>
<svg xmlns="http://www.w3.org/2000/svg" height="512px" viewBox="-61 0 512 512" width="512px"><g><path d="m300 286c0 8.285156-6.714844 15-15 15s-15-6.714844-15-15 6.714844-15 15-15 15 6.714844 15 15zm0 0" data-original="#000000" class="active-path" data-old_color="#000000" fill="#9B9B9B"/><path d="m330 346c0 8.285156-6.714844 15-15 15s-15-6.714844-15-15 6.714844-15 15-15 15 6.714844 15 15zm0 0" data-original="#000000" class="active-path" data-old_color="#000000" fill="#9B9B9B"/><path d="m90 346c0 8.285156-6.714844 15-15 15s-15-6.714844-15-15 6.714844-15 15-15 15 6.714844 15 15zm0 0" data-original="#000000" class="active-path" data-old_color="#000000" fill="#9B9B9B"/><path d="m120 286c0 8.285156-6.714844 15-15 15s-15-6.714844-15-15 6.714844-15 15-15 15 6.714844 15 15zm0 0" data-original="#000000" class="active-path" data-old_color="#000000" fill="#9B9B9B"/><path d="m60.175781 416.15625c1.683594 49.226562 15.734375 95.84375 44.824219 95.84375 5.257812 0 13.121094-1.6875 20.714844-9.714844 13.789062-14.578125 22.691406-47.113281 24.097656-85.238281 14.496094 2.621094 29.601562 3.953125 45.1875 3.953125s30.691406-1.332031 45.1875-3.953125c1.402344 38.125 10.308594 70.660156 24.097656 85.238281 7.59375 8.027344 15.457032 9.714844 20.714844 9.714844 29.089844 0 43.140625-46.617188 44.824219-95.84375 34.980469-12.054688 60.175781-45.300781 60.175781-84.320312 0-13.664063-2.28125-26.804688-6.480469-39.0625 4.296875-16.1875 6.480469-33.574219 6.480469-51.773438 0-112.566406-84.25-241-195-241-110.621094 0-195 128.261719-195 241 0 18.195312 2.183594 35.585938 6.480469 51.773438-4.199219 12.257812-6.480469 25.398437-6.480469 39.0625 0 39.019531 25.195312 72.265624 60.175781 84.320312zm44.792969 64.285156c-4.898438-6.511718-12.660156-26.757812-14.546875-59.464844 10.234375-.140624 20.144531-1.980468 29.398437-5.34375-.519531 14-2.164062 27.382813-4.867187 39.070313-3.386719 14.628906-7.472656 22.375-9.984375 25.738281zm53.410156-92.351562c4.03125-4.992188 7.578125-10.460938 10.535156-16.378906 3.304688-6.605469 9.945313-10.710938 17.332032-10.710938h17.507812c7.386719 0 14.027344 4.105469 17.332032 10.710938 2.957031 5.917968 6.503906 11.386718 10.535156 16.378906-11.75 1.929687-23.988282 2.910156-36.621094 2.910156s-24.871094-.980469-36.621094-2.910156zm36.621094-102.089844c-4.671875 0-11.078125-7.277344-13.808594-12.539062 2.722656-1.191407 7.441406-2.460938 13.808594-2.460938s11.085938 1.269531 13.808594 2.460938c-2.730469 5.261718-9.136719 12.539062-13.808594 12.539062zm80.046875 168.703125c-2.703125-11.6875-4.351563-25.070313-4.867187-39.070313 9.253906 3.363282 19.164062 5.207032 29.394531 5.34375-1.882813 32.707032-9.644531 52.953126-14.542969 59.464844-2.511719-3.363281-6.597656-11.109375-9.984375-25.738281zm25.789063-63.703125c-22.617188 0-42.875-12.621094-52.917969-32.707031-7.476563-14.949219-21.65625-24.863281-37.917969-26.898438v-18.765625c17.984375-8.183594 30-29.382812 30-41.628906 0-17.382812-18.925781-30-45-30s-45 12.617188-45 30c0 12.246094 12.015625 33.445312 30 41.628906v18.765625c-16.261719 2.035157-30.441406 11.949219-37.917969 26.898438-10.03125 20.0625-30.277343 32.707031-52.917969 32.707031-32.625 0-59.164062-26.539062-59.164062-59.164062 0-50.085938 40.75-90.835938 90.835938-90.835938h74.164062l74.164062-.011719c50.085938 0 90.835938 40.761719 90.835938 90.847657 0 32.625-26.539062 59.164062-59.164062 59.164062zm-270.835938-150c0-96.09375 71.972656-211 165-211 93.890625 0 165 116.109375 165 211 0 3.671875-.121094 7.292969-.324219 10.871094-22.15625-25.046875-54.519531-40.871094-90.511719-40.871094h-148.328124c-35.992188 0-68.355469 15.824219-90.511719 40.871094-.203125-3.578125-.324219-7.199219-.324219-10.871094zm0 0" data-original="#000000" class="active-path" data-old_color="#000000" fill="#9B9B9B"/><path d="m120 166c0 8.285156-6.714844 15-15 15s-15-6.714844-15-15 6.714844-15 15-15 15 6.714844 15 15zm0 0" data-original="#000000" class="active-path" data-old_color="#000000" fill="#9B9B9B"/><path d="m300 166c0 8.285156-6.714844 15-15 15s-15-6.714844-15-15 6.714844-15 15-15 15 6.714844 15 15zm0 0" data-original="#000000" class="active-path" data-old_color="#000000" fill="#9B9B9B"/></g> </svg>
