<?xml version="1.0"?>
<svg xmlns="http://www.w3.org/2000/svg" height="512px" viewBox="0 -31 512.0005 512" width="512px"><g><path d="m488.214844 225 19.390625-19.394531c5.859375-5.855469 5.859375-15.351563 0-21.210938-5.855469-5.859375-15.351563-5.859375-21.210938 0l-7.257812 7.257813c-3.097657-17.902344-8.640625-34.976563-16.277344-50.863282l13.503906-7.796874c7.175781-4.144532 9.632813-13.316407 5.492188-20.492188-4.144531-7.171875-13.316407-9.628906-20.492188-5.488281l-13.554687 7.824219c-13.625-19.828126-30.816406-37.019532-50.644532-50.644532l7.824219-13.554687c4.144531-7.175781 1.6875-16.347657-5.488281-20.492188-7.175781-4.140625-16.347656-1.683593-20.488281 5.492188l-7.796875 13.503906c-21.238282-10.210937-44.59375-16.6875-69.214844-18.570313v-15.570312c0-8.285156-6.714844-15-15-15s-15 6.714844-15 15v15.460938c-26.046875 1.605468-49.714844 7.28125-71.226562 15.191406l-5.785157-10.019532c-4.140625-7.171874-13.3125-9.628906-20.488281-5.488281s-9.632812 13.316407-5.488281 20.488281l3.980469 6.902344c-27.585938 13.417969-51.117188 29.605469-71.214844 43.433594-9.386719 6.457031-17.78125 12.234375-25.503906 17.015625l-54.738282-26.488281c-4.648437-2.25-10.128906-1.949219-14.503906.796875-4.375 2.742187-7.03125 7.542969-7.03125 12.707031v120c0 5.164062 2.65625 9.964844 7.03125 12.707031 4.375 2.746094 9.855469 3.042969 14.5.796875l53.195312-25.738281c5.191407-2.515625 9.164063-.175781 13.820313 2.660156 2.234375 2.6875 3.453125 6.039063 3.453125 9.574219 0 30.140625 6.878906 58.707031 19.140625 84.210938l-13.503906 7.796874c-7.175781 4.144532-9.632813 13.316407-5.492188 20.492188 4.15625 7.195312 13.335938 9.621094 20.492188 5.488281l13.554687-7.824219c13.625 19.828126 30.816406 37.019532 50.644532 50.644532l-7.824219 13.554687c-4.144531 7.175781-1.6875 16.347657 5.488281 20.492188 7.148438 4.125 16.332031 1.707031 20.488281-5.492188l7.796875-13.503906c21.238282 10.210937 44.59375 16.6875 69.214844 18.570313v15.570312c0 8.285156 6.714844 15 15 15 8.28125 0 15-6.714844 15-15v-15.570312c24.621094-1.882813 47.976562-8.359376 69.210938-18.570313l7.796874 13.507813c4.15625 7.195312 13.335938 9.617187 20.488282 5.488281 7.175781-4.140625 9.636718-13.316407 5.492187-20.488281l-7.828125-13.558594c19.828125-13.625 37.023438-30.816406 50.648438-50.644532l13.554687 7.828126c7.148438 4.125 16.332031 1.707031 20.488281-5.492188 4.144532-7.171875 1.6875-16.347656-5.488281-20.488281l-13.503906-7.796875c7.636719-15.886719 13.175781-32.964844 16.273437-50.867188l7.257813 7.257813c5.859375 5.859375 15.355469 5.859375 21.214844 0 5.859375-5.855469 5.859375-15.351563 0-21.210938zm-426.214844-39.394531c-.113281.054687-.230469.101562-.34375.15625l-31.65625 15.316406v-72.15625l32 15.484375zm225 204.394531c-51.128906 0-96.898438-23.375-127.1875-60h.105469c23.546875 0 46.21875-2.3125 69-7.050781.800781.917969 1.625 1.804687 2.476562 2.65625 4.53125 4.53125 11.511719 5.695312 17.3125 2.8125 10.675781-5.308594 104.898438-44.949219 105.003907-45 .058593-.03125.113281-.066407.171874-.09375 31.410157-9.195313 59.367188-13.324219 90.199219-13.324219h1.679688c-19.636719 69.179688-83.375 120-158.761719 120zm-39.914062-146.671875c14.351562 6.058594 40.753906 17.3125 61.863281 26.390625-16.726563 7.125-45.628907 19.492188-62.019531 26.65625-7.589844-14.925781-7.539063-38.238281.15625-53.046875zm204.914062-18.324219c0 5.054688-.242188 10.054688-.6875 14.996094h-7.230469c-33.058593 0-63.011719 4.300781-96.347656 13.863281-20.371094-9.023437-89.332031-38.445312-99.070313-42.394531-2.085937-.84375-8.4375-3.421875-15.050781.945312-6.371093 4.207032-22.253906 24.359376-22.253906 57.585938 0 8.851562 1.136719 17.339844 3.261719 25.160156-18.019532 3.246094-36.058594 4.839844-54.703125 4.839844h-19.867188c-11.535156-22.515625-18.050781-48.011719-18.050781-75 0-12.019531-4.679688-23.320312-13.179688-31.820312l-.003906.003906c-2.265625-2.195313-10.273437-7.210938-16.816406-9.375v-40.285156c48.699219-30.164063 106.953125-83.523438 195-83.523438 90.980469 0 164.996094 74.015625 165 164.996094zm0 0" data-original="#000000" class="active-path" data-old_color="#000000" fill="#9B9B9B"/><path d="m377 210c24.8125 0 45-20.1875 45-45s-20.1875-45-45-45-45 20.1875-45 45 20.1875 45 45 45zm0-60c8.269531 0 15 6.730469 15 15s-6.730469 15-15 15-15-6.730469-15-15 6.730469-15 15-15zm0 0" data-original="#000000" class="active-path" data-old_color="#000000" fill="#9B9B9B"/><path d="m182 240c0 8.285156-6.714844 15-15 15s-15-6.714844-15-15 6.714844-15 15-15 15 6.714844 15 15zm0 0" data-original="#000000" class="active-path" data-old_color="#000000" fill="#9B9B9B"/><path d="m302 165c0 8.285156-6.714844 15-15 15s-15-6.714844-15-15 6.714844-15 15-15 15 6.714844 15 15zm0 0" data-original="#000000" class="active-path" data-old_color="#000000" fill="#9B9B9B"/><path d="m152 165c0 8.285156-6.714844 15-15 15s-15-6.714844-15-15 6.714844-15 15-15 15 6.714844 15 15zm0 0" data-original="#000000" class="active-path" data-old_color="#000000" fill="#9B9B9B"/><path d="m227 180c0 8.285156-6.714844 15-15 15s-15-6.714844-15-15 6.714844-15 15-15 15 6.714844 15 15zm0 0" data-original="#000000" class="active-path" data-old_color="#000000" fill="#9B9B9B"/><path d="m302 105c0 8.285156-6.714844 15-15 15s-15-6.714844-15-15 6.714844-15 15-15 15 6.714844 15 15zm0 0" data-original="#000000" class="active-path" data-old_color="#000000" fill="#9B9B9B"/><path d="m212 105c0 8.285156-6.714844 15-15 15s-15-6.714844-15-15 6.714844-15 15-15 15 6.714844 15 15zm0 0" data-original="#000000" class="active-path" data-old_color="#000000" fill="#9B9B9B"/></g> </svg>
