<?xml version="1.0"?>
<svg xmlns="http://www.w3.org/2000/svg" xmlns:xlink="http://www.w3.org/1999/xlink" version="1.1" id="Capa_1" x="0px" y="0px" viewBox="0 0 512 512" style="enable-background:new 0 0 512 512;" xml:space="preserve" width="512px" height="512px"><g><g>
	<path d="M288.476,331h53.496V15c0-8.286-6.716-15-15-15h-240c-8.284,0-15,6.714-15,15v301c0,8.284,6.716,15,15,15h71.495   c2.109-7.141,3.505-14.033,3.505-20.391V241c0-33.091,26.909-60,60-60s60,26.909,60,60v53.672   C281.972,307.196,284.154,319.369,288.476,331z M272.26,76.923l-69.683,69.683c-2.93,2.93-6.768,4.395-10.605,4.395   s-7.676-1.465-10.605-4.395l-45-45c-5.859-5.859-5.859-15.352,0-21.211s15.352-5.859,21.211,0l34.395,34.395l59.077-59.077   c5.859-5.859,15.352-5.859,21.211,0S278.119,71.063,272.26,76.923z" data-original="#000000" class="active-path" data-old_color="#000000" fill="#13BDE9"/>
	<path d="M221.972,512h165c6.885,0,12.876-4.688,14.546-11.367l36.27-145.99c6.724-26.997-1.934-55.327-22.603-73.931l-43.213-38.89   V346c0,8.291-6.709,15-15,15h-51.973l4.453,6.68c4.6,6.899,2.739,16.201-4.16,20.801c-7.018,4.653-16.28,2.631-20.801-4.16   c-7.46-11.611-13.292-18.607-19.766-32.408c-0.026-0.06-0.044-0.121-0.07-0.183c-8.318-17.796-12.684-37.185-12.684-57.057   c0-3.25,0-56.754,0-53.672c0-16.569-13.431-30-30-30s-30,13.431-30,30c0,3.333,0,69.609,0,69.609c0,15.19-3.999,31.45-11.88,48.325   c-25.723,55.093-2.417,98.676,29.385,146.356C212.26,509.48,216.947,512,221.972,512z" data-original="#000000" class="active-path" data-old_color="#000000" fill="#13BDE9"/>
</g></g> </svg>
