<?xml version="1.0"?>
<svg xmlns="http://www.w3.org/2000/svg" id="Icon" enable-background="new 0 0 96 96" height="512px" viewBox="0 0 96 96" width="512px"><g><path id="Like" d="m91 42c0-4.411-3.589-8-8-8h-27.293l4.019-13.059c.943-3.065.392-6.302-1.514-8.882s-4.837-4.059-8.044-4.059h-.421c-2.464 0-4.714 1.545-5.601 3.846l-5.124 13.326c-2.148 5.583-5.594 10.576-10.022 14.571v-1.743c0-3.309-2.691-6-6-6h-12c-3.309 0-6 2.691-6 6v44c0 3.309 2.691 6 6 6h12c3.309 0 6-2.691 6-6v-2.554l3.63 2.074c5.128 2.931 10.961 4.48 16.868 4.48h21.502c4.411 0 8-3.589 8-8 0-1.649-.502-3.182-1.36-4.457 3.116-1.094 5.36-4.058 5.36-7.543 0-1.649-.502-3.182-1.36-4.457 3.116-1.094 5.36-4.058 5.36-7.543 0-1.649-.502-3.182-1.36-4.457 3.116-1.094 5.36-4.058 5.36-7.543zm-66 40c0 1.103-.897 2-2 2h-12c-1.103 0-2-.897-2-2v-44c0-1.103.897-2 2-2h12c1.103 0 2 .897 2 2zm58-36h-14c-1.104 0-2 .896-2 2s.896 2 2 2h10c2.206 0 4 1.794 4 4s-1.794 4-4 4h-12c-1.104 0-2 .896-2 2s.896 2 2 2h8c2.206 0 4 1.794 4 4s-1.794 4-4 4h-10c-1.104 0-2 .896-2 2s.896 2 2 2h6c2.206 0 4 1.794 4 4s-1.794 4-4 4h-21.502c-5.212 0-10.358-1.366-14.884-3.952l-5.614-3.208v-29.879l.791-.633c5.81-4.647 10.293-10.774 12.965-17.72l5.124-13.326c.296-.766 1.046-1.282 1.867-1.282h.421c1.924 0 3.684.888 4.827 2.436s1.474 3.49.908 5.329l-4.02 13.06c-.377 1.226-.155 2.521.606 3.553.764 1.03 1.937 1.622 3.219 1.622h27.292c2.206 0 4 1.794 4 4s-1.794 4-4 4z" data-original="#000000" class="active-path" data-old_color="#000000" fill="#9B9B9B"/></g> </svg>
