<svg height="512pt" viewBox="0 -13 512 512" width="512pt" xmlns="http://www.w3.org/2000/svg"><path d="m164.070312 485.417969c-63.851562-6.460938-114.601562-57.292969-120.964843-121.175781-3.921875 1.394531-8.136719 2.179687-12.542969 2.179687-10.222656 0-19.484375-4.117187-26.234375-10.769531-5.769531-5.6875-5.769531-15.078125 0-20.769532 6.75-6.652343 16.011719-10.753906 26.234375-10.753906 5.832031 0 11.347656 1.34375 16.265625 3.730469-2.386719-4.914063-3.730469-10.421875-3.730469-16.261719 0-10.226562 4.101563-19.488281 10.753906-26.238281 5.691407-5.769531 15.082032-5.769531 20.769532 0 6.652344 6.75 10.765625 16.011719 10.765625 26.238281 0 7.230469-2.066407 13.972656-5.628907 19.703125l4.957032 2.738281c3.902344 2.160157 8.046875 3.8125 12.332031 4.917969 4.285156 1.113281 8.699219 1.675781 13.164063 1.675781 29.066406 0 52.625-23.558593 52.625-52.625v-2.890624c0-96.664063 77.839843-176.207032 174.492187-176.257813 96.460937-.046875 174.671875 78.132813 174.671875 174.585937 0 19.984376-2.488281 38.085938-6.863281 54.46875zm0 0" fill="#59c2e7"/><path d="m164.070312 485.417969 46.015626-19.902344c-8.480469 0-16.960938.15625-25.414063-.703125-59.179687-5.988281-107.105469-50.089844-118.867187-107.375-1.410157-6.875-7.488282-11.644531-14.503907-11.621094-.046875 0-.089843 0-.132812 0-10.222657 0-19.484375-4.113281-26.238281-10.765625-2.679688-2.640625-4.097657-6.082031-4.289063-9.578125-8.125 2.234375-18.609375 7.917969-20.371094 16.984375-.910156 4.683594.585938 9.773438 4.058594 13.199219 6.949219 6.851562 16.476563 10.765625 26.234375 10.765625 4.40625 0 8.621094-.785156 12.542969-2.175781.785156 7.863281 2.257812 15.675781 4.40625 23.28125 11.199219 39.695312 41.140625 73.167968 79.53125 88.722656 11.625 4.710938 24.058593 7.855469 37.027343 9.167969zm0 0" fill="#00acdc"/><path d="m505.136719 337.914062v.011719c-12.058594 45.128907-38.46875 77.214844-66.84375 99.703125-40.023438 31.726563-89.871094 48.492188-140.949219 48.492188h-119.457031c-4.667969 0-9.273438-.242188-13.816407-.703125 98.890626-198.363281 341.066407-147.503907 341.066407-147.503907zm0 0" fill="#e8e8e8"/><path d="m438.320312 437.609375c10.191407-8.097656 19.703126-17.070313 28.214844-26.921875-2.523437 2.191406-5.074218 4.304688-7.636718 6.335938-40.023438 31.726562-89.871094 48.492187-140.953126 48.492187h-119.457031c-7.511719 0-14.996093-.644531-22.402343-1.878906-4.203126 6.90625-8.214844 14.15625-12.015626 21.78125 2.273438.230469 11.484376.703125 13.816407.703125h119.457031c12.769531 0 25.464844-1.050782 37.945312-3.117188 37.234376-6.167968 73.253907-21.792968 103.003907-45.375.011719-.007812.019531-.015625.027343-.019531zm0 0" fill="#c7c5cb"/><path d="m447.894531 254.484375c-4.269531 0-7.726562-3.457031-7.726562-7.726563v-14.703124c0-4.269532 3.457031-7.726563 7.726562-7.726563 4.265625 0 7.726563 3.457031 7.726563 7.726563v14.703124c0 4.269532-3.460938 7.726563-7.726563 7.726563zm0 0" fill="#423e4f"/><path d="m444.226562 278.046875h-18.75c-4.269531 0-7.726562-3.460937-7.726562-7.726563 0-4.265624 3.457031-7.726562 7.726562-7.726562h18.75c4.265626 0 7.726563 3.460938 7.726563 7.726562 0 4.265626-3.460937 7.726563-7.726563 7.726563zm0 0" fill="#ffc9d3"/><path d="m510.34375 259.398438c-.582031.066406-1.164062.195312-1.738281.402343-4.148438 1.5-17.507813 4.441407-24.257813-1.539062-3.195312-2.832031-8.078125-2.53125-10.910156.660156-2.828125 3.195313-2.53125 8.078125.664062 10.90625 6.542969 5.796875 14.769532 7.457031 22.046876 7.457031 6.738281 0 12.640624-1.421875 15.644531-2.296875-.25-5.261719-.742188-10.460937-1.449219-15.589843zm0 0" fill="#423e4f"/><path d="m246.054688 356.070312c-4.730469 0-9.488282-.585937-14.164063-1.792968-5.515625-1.425782-9.828125-5.734375-11.25-11.25-5.023437-19.472656.675781-40.386719 14.875-54.582032 7.953125-7.953124 17.957031-13.332031 28.9375-15.554687 4.183594-.847656 8.257813 1.859375 9.105469 6.042969.847656 4.179687-1.859375 8.257812-6.039063 9.105468-7.992187 1.617188-15.28125 5.535157-21.078125 11.332032-10.347656 10.347656-14.5 25.597656-10.839844 39.792968.019532.074219.074219.128907.148438.148438 14.199219 3.660156 29.449219-.492188 39.796875-10.839844 5.796875-5.796875 9.714844-13.085937 11.332031-21.078125.847656-4.183593 4.925782-6.886719 9.105469-6.039062 4.183594.84375 6.886719 4.921875 6.039063 9.101562-2.21875 10.980469-7.597657 20.988281-15.550782 28.941407-10.785156 10.789062-25.453125 16.671874-40.417968 16.671874zm0 0" fill="#00acdc"/><path d="m390.71875 74.332031c3.128906-38.753906 32.914062-52.910156 45.785156-38.460937 6.175782 6.933594 3.253906 15.992187-2.726562 21.941406-6.839844 6.804688-16.617188 8.136719-25.070313 12.042969-4.492187 2.074219-8.933593 4.53125-13.078125 7.363281-2.1875 1.496094-5.125-.242188-4.910156-2.886719zm0 0" fill="#59c2e7"/><path d="m352.566406 74.332031c-3.128906-38.753906-32.910156-52.910156-45.785156-38.460937-6.175781 6.933594-3.253906 15.992187 2.726562 21.941406 6.839844 6.804688 16.617188 8.136719 25.074219 12.042969 4.488281 2.074219 8.933594 4.53125 13.074219 7.363281 2.191406 1.496094 5.125-.242188 4.910156-2.886719zm0 0" fill="#59c2e7"/><path d="m370.765625 39.757812c.488281.472657 1.265625.472657 1.757813 0 21.722656-20.976562 15.957031-39.757812-.878907-39.757812-16.839843 0-22.605469 18.78125-.878906 39.757812zm0 0" fill="#a7e0f5"/></svg>