<svg id="Capa_1" enable-background="new 0 0 512 512" height="512" viewBox="0 0 512 512" width="512" xmlns="http://www.w3.org/2000/svg"><g><path d="m512 299.451v-280.728l-.442-.351c-28.143-22.375-73.773-22.375-101.916 0l-.221.176-.221.176c-28.143 22.375-73.773 22.375-101.916 0l-.221-.176-.221-.176c-28.143-22.375-73.773-22.375-101.916 0l-.221.176-.221.176c-28.143 22.375-73.773 22.375-101.916 0l-.221-.176-.221-.176c-28.143-22.375-73.773-22.375-101.916 0v.007l-.21.168v280.904z" fill="#b3d8f4"/><path d="m511.558 18.371c-28.143-22.375-73.773-22.375-101.916 0l-.221.176-.221.176c-28.143 22.375-73.773 22.375-101.916 0l-.221-.176-.221-.176c-14.041-11.164-32.437-16.755-50.842-16.779v297.859h256v-280.728z" fill="#87c0ed"/><path d="m512 401.983v-280.729l-.442-.351c-28.143-22.375-73.773-22.375-101.916 0l-.221.176-.221.176c-28.143 22.375-73.773 22.375-101.916 0l-.221-.176-.221-.176c-28.143-22.375-73.773-22.375-101.916 0l-.221.176-.221.176c-28.143 22.375-73.773 22.375-101.916 0l-.221-.176-.221-.176c-28.143-22.375-73.773-22.375-101.916 0v.007l-.21.169v280.904z" fill="#87c0ed"/><path d="m511.558 120.903c-28.143-22.375-73.773-22.375-101.916 0l-.221.176-.221.176c-28.143 22.375-73.773 22.375-101.916 0l-.221-.176-.221-.176c-14.042-11.164-32.438-16.756-50.843-16.779v297.859h256v-280.729z" fill="#6aa9ff"/><path d="m512 504.466v-280.728l-.442-.351c-28.143-22.375-73.773-22.375-101.916 0l-.221.176-.221.176c-28.143 22.375-73.773 22.375-101.916 0l-.221-.176-.221-.176c-28.143-22.375-73.773-22.375-101.916 0l-.221.176-.221.176c-28.143 22.375-73.773 22.375-101.916 0l-.221-.176-.221-.176c-28.143-22.375-73.773-22.375-101.916 0v.007l-.21.168v280.904z" fill="#b3d8f4"/><path d="m511.558 223.386c-28.143-22.375-73.773-22.375-101.916 0l-.221.176-.221.176c-28.143 22.375-73.773 22.375-101.916 0l-.221-.176-.221-.176c-14.042-11.164-32.438-16.756-50.843-16.779v297.859h256v-280.728z" fill="#87c0ed"/><path d="m512 510.41v-184.626l-.442-.351c-28.143-22.375-73.773-22.375-101.916 0l-.221.176-.221.176c-28.143 22.375-73.773 22.375-101.916 0l-.221-.176-.221-.176c-28.143-22.375-73.773-22.375-101.916 0l-.221.176-.221.176c-28.143 22.375-73.773 22.375-101.916 0l-.221-.176-.221-.176c-28.143-22.375-73.773-22.375-101.916 0v.007l-.21.169v184.801z" fill="#87c0ed"/><path d="m512 510.41v-84.771l-.442-.351c-28.143-22.375-73.773-22.375-101.916 0l-.221.176-.221.176c-28.143 22.375-73.773 22.375-101.916 0l-.221-.176-.221-.176c-28.143-22.375-73.773-22.375-101.916 0l-.221.176-.221.176c-28.143 22.375-73.773 22.375-101.916 0l-.221-.176-.221-.176c-28.143-22.375-73.773-22.375-101.916 0v.007l-.21.168v84.947z" fill="#b3d8f4"/><path d="m511.558 325.433c-28.143-22.375-73.773-22.375-101.916 0l-.221.176-.221.176c-28.143 22.375-73.773 22.375-101.916 0l-.221-.176-.221-.176c-14.042-11.164-32.438-16.756-50.843-16.779v201.756h256v-184.626z" fill="#6aa9ff"/><path d="m511.558 425.288c-28.143-22.375-73.773-22.375-101.916 0l-.221.176-.221.176c-28.143 22.375-73.773 22.375-101.916 0l-.221-.176-.221-.176c-14.042-11.164-32.438-16.756-50.843-16.779v101.901h256v-84.771z" fill="#87c0ed"/></g></svg>